# xmcd
#
# Track frame offsets: 
#        150
#        29500
#        44725
#        60099
#        103626
#        120103
#        147710
#        169967
#        185051
#        202311
#        231336
#        249560
#        265687
#        282817
#
# Disc length: 4002 seconds
#
# Revision: 0
# Processed by: cddbd v1.5.2PL0 Copyright (c) Steve Scherf et al.
# Submitted via: ExactAudioCopy v1.0b1
#
DISCID=d40fa00e
DTITLE=Various Artist - The Disco Hits Vol. 2
DYEAR=1992
DGENRE=Disco
TTITLE0=The Trammps - Disco Inferno
TTITLE1=Sheena Easton - Morning Train (9 To 5)
TTITLE2=Hues Corporation - Rock The Boat
TTITLE3=Gloria Gaynor - I Will Survive
TTITLE4=Sheena Easton - Modern Girl
TTITLE5=Lipps, Inc. - Funkytown
TTITLE6=Sylvester - You Make Me Feel
TTITLE7=Patrick Hernandez - Born To Be Alive
TTITLE8=Village People - Y.M.C.A.
TTITLE9=A Taste Of Honey - Boogie Oogie Oogie
TTITLE10=Sheena Easton - Strut
TTITLE11=Kool And The Gang - Ladies Night
TTITLE12=Village People - In The Navy
TTITLE13=Patrick Juvet - I Love America
EXTD=
EXTT0=
EXTT1=
EXTT2=
EXTT3=
EXTT4=
EXTT5=
EXTT6=
EXTT7=
EXTT8=
EXTT9=
EXTT10=
EXTT11=
EXTT12=
EXTT13=
PLAYORDER=
